<?xml version="1.0" encoding="UTF-8"?><svg id="Layer_1" xmlns="http://www.w3.org/2000/svg" viewBox="0 0 226.9 392.1"><path d="M42,14.5c0-.4,2.7-6.2,3.1-6.9,4.9-8,15.9-2.2,16.9,5.8.6,5.3-1.3,29.8,1.9,32.1,1,.5,2.5.7,3.5.5s6.9-12.2,7.4-13.8,2.9-14,3-15.9-1.6-3.9-1.5-6.6c.5-10.8,11.3-14.1,16.2-2.7s4.4,34.6-5,47.8-16.1,16.5-17.2,22.8c-2.7,16.3,15.9,45.6,33.4,46.9,17.1,1.3,46.4-26,48.9-42.6,1.1-6.9-.7-4.2-3.6-7.5-12.6-14.9-25-21.4-21.9-43.9.8-5.6,4-12.4,10.5-8.6s8.3,13.1,11.5,17.3c1.1,1.5,10.7,12.4,11.4,12.8,3.6,2.1,6.5,0,7.3-3.8,1.7-8.1.8-19.4,2.3-27.7s2.5-8.7,4.6-9.4c2.9-1,8.5.6,10.6,2.8,4.1,4.3.2,33.7,1.7,41.5,1,5.1,5.8,3.6,9,1.1,10-7.8,8.6-27,10-38,.3-2.6,1.8-8.1,4.4-8.6,9-1.8,13.6,3,14.5,11.5,1,8.9.3,25.1-2.6,33.5-7,20.4-28,29.9-48.3,30.2-5.1,14.3-16.3,30.5-26.6,41.9s-15,12.6-15.5,15.5c-.2,2.1.1,1.3,1.5,1.5,6.4.9,20.1.4,27.1,0s17.8-2.9,25.9-3.1,16.4,0,19,4.1,2.6,24-.9,28c-7.2,8.1-32.9,24-43.2,30.8s-33.5,16.5-37.8,29.2c-1.7,5-.8,11.5-2.4,16.6l.9,1.9,2.3.3c20.7-7.2,64.5-30.6,85.5-21,1.1.5,13.6,8.2,14.2,8.8,3.1,2.8,4.5,10.4.3,12.4-6.1,2.9-18.8-3.4-25.3,2.7.6,4.2,3.6,7.6,4.1,11.9,1.1,8.9.7,38.3-3.3,45.8s-7.2,5.5-5.7,15.2c.2,1.3,4.1,10.7,4.9,12.1,3.7,6.7,16.3,16.5,15.1,23.9s-17.6,5.8-22.4,2.4c-2.6-1.8-4.8-11.2-8.7-8.4-5.4,3.8,7,28.9,2,33-7.9,6.7-18.6-9.3-20.5-15.5s-1.9-27.9-.4-36.5c.9-4.7,8.2-23.4,7.7-25.9-4.6-7.5-17.4-3.8-24.8-2.2-10.3,2.2-20.2,6.9-30.6,8.4-10.2,1.5-20.3,1.1-30.4-.9,6.3,7.7,14.2,15.3,11.9,26.4-1.1,3.4-14.2,1.2-17.1-.4s-1.3-3.9-4.8-3c-1.9,7.2-2.7,14.8-4.5,22-8.2,32.7-16.6,4.6-17.5-11.5-1.8-29.2,5-42.9,21.6-65.4s19.1-19.6,22.3-25.7,3.7-23.5,1.6-29.4c-2.1-5.9-9.2-8.7-12.2-14-1.8-.7-3.6-1.6-5.6-1.6-4.1,0-19.1,3.8-23.7,5.2s-12.4,3.9-13.7,9.3c-1.4,5.4,2.1,17.7-4.2,20.8-11.3,5.5-15.4-17.8-16-25-1.7-20.1.9-43.1.6-63.5,5.5-6.4,11.3-11.1,19.6-13.4l41.9-1.6-26.4-31.1c-4.9-14.8-9.8-11.7-21.3-15.7C22.3,94.5.6,52.5,0,36.5s17.5-25.3,20.9-5.9c1.8,10.5,5.2,25.9,12.7,34.3s4.2,3.8,5.1,3.9,3.3-2,3.3-2.4V14.5ZM128.7,198.7c7.1-8.5,3-32.4-8-37-5.7-2.4-14.1,6-15.5,11-1.5,5.4-.6,23.9,1.6,29s4.2,6.6,5.6,7.4c6.3,3.6,9.8-4.1,13-8.1s2.6-1.5,3.2-2.2ZM173.6,175.6c4.1-3.8,10-7.4,4.5-13.1-11.7-1.2-22.4-1.8-34,.5-.7,4.2,1.2,20.1,5.7,21s14.9-2.7,17.3-3.6,4.4-3,6.5-4.9ZM82.7,165.3c-2.8-2.6-8.5-2.7-12.1-2.2s-21.4,6.4-25.1,8.9-6,5-6.2,5.3c-3,4.2-1.7,23.4,5.2,24.7s23.7.3,28.4-2.5c5.3-3.2,15.3-16.4,14.8-22.7s-3.5-10-5.1-11.4ZM171.8,254.2c-6.9,1.3-14.3,6-20.8,8.3-16.7,6-41.5,10.1-51.4,25.6s3.4,6.1,7.9,5.9c16.8-.5,38.4-2.6,54.8-6.2,4.7-1,19.9-6.2,22.2-9.8,4.5-7-1.6-25.8-12.7-23.7Z"/></svg>