<?xml version="1.0" encoding="UTF-8"?><svg id="Layer_1" xmlns="http://www.w3.org/2000/svg" viewBox="0 0 208.5 208.5"><defs><style>.cls-1{fill:none;stroke:#000;stroke-miterlimit:10;stroke-width:8.5px;}</style></defs><path d="M172.3,152.3c1.9-.6,1.3-8.5,6.5-7,5.6,28.1-19.8,52-45.9,33.4-9.1-6.5-16.5-24.5-8.8-33.8l2.7-.2,2.2,6.4c1.6,2.3,15.5,1.2,18.8.2,1.3-1.5-3.3-11.2-3.7-13.7-.9-6,2.5-10.6,4.3-16.2.9-2.9-.5-7.3,3.9-8.1,2.6,8,7,19.2,5.5,27.5-.7,3.8-6.1,6.6-.5,11.5h15ZM130.8,160.3c.6,18.2,30.8,22.8,38.4,6.9s3.2-6.2-.9-6.9h-37.5Z"/><path d="M57.8,135.3c6,1.7,6-11.3,7-12,6.9-.1,4.4,6.9,3.9,11.4,7.4,0,6,15.6,1.6,15.6s-3.4-8.8-3.5-12.1c-3.6,2.9-10,5.1-9.9,10.4s1.3,7,1.9,7.9,2.6,1.5,3.6,2.6c1.8,2.2,11.5,12.8,8.4,15-5.8.8-8.7-4.7-12.5-7.9-2.9,0,.1,18-5,18-4.4,0-2.4-5.7-2.6-7.4-.3-3.5-1.5-6.9-.9-10.6l-12.5,9c-1.5.3-2.3-1.2-2.5-2.5-1.2-8,16.2-14.7,16.1-24s-4.6-5.8-7.6-8.5c-2.5-2.3-9.3-12.3-5.4-14.9,5.5-3.7,6.6,11.4,11.4,9.9s1.6-11.9.6-14.4c-2.2-3-15.6,3.2-18.6,4.5-1.8.7-2.4-3.7-2.3-4.4.5-2.6,9.1-6.7,11.7-7.2,19-3.9,15.7,7.4,17.1,21.6Z"/><path d="M156.8,38.3c3.9,0,4.8-4.9,5-8,5.7-.3,6.1,5.1,3.9,9.4-2.4,4.6-10.3,5.9-7.9,11.6,5.1.5,6.5-4,9-7.5,2.8-2,2.5,7.3-.5,10.5-2,2.1-5.7,1.7-7.4,4.5,6.3,4.4,13.8,3.6,17,12s3.9,29.1-.5,30.6l-2.5-.7c-1.4-10.2,1.9-22.8-4.7-31.4-.9-.6-12.9-4.6-13.8-4.5-4.4.1-15.2,7.5-20.2,8.4-1.5.3-3.8.4-4.2-1.4-1.3-5.1,16.6-9.2,19-12.9.2-.5-5.9-2.5-6.9-3.1-5.8-3.7-8.2-13.6-1.1-9.9.6.3,9,11.8,11,5s-12.8-5.6-12.7-15.8.6-3.3,2.2-2.7c3.1,2.7,4.6,8.4,9.5,8,.3-3-.1-5.1-2-7.5-3.5-4.5-9.8-2.5-8-9.5,7.9.3,15.6,6.8,16,15Z"/><path d="M69.8,42.3c.8,2.5-1,5.7-.9,7.6.2,3.4,4.6,4.3-2.1,9l1.5,2.5c6.9-1.1,10.9-5.1,14-11,7.6,8.2-8.2,14.9-14,19-.7,4.4-1.5,8.9-2.8,13.2s-5.1,18.4-8.2,17.8c-1.8-1.3-1.6-2.3-1.3-4.2.8-6.3,8.5-21.2,6.9-27.2-8-2.9-20.3-8.9-16.1-19.2l3-.4c1,6.4,5.1,12,12,12l-1.9-8.3c.6-2,3.3-2.3,4.3-3.8,1.8-2.6.5-7.9,5.6-6.9Z"/><path d="M70.8,165.3c-3.8-7,7.5-9.3,8.8-13.7s-1.3-23.5,3.7-22.3c2,.5,3.5,9.5,3.5,11.6.1,3.1-1.5,5.5-.6,8.5,1.6,5.4,12.9,12,11.5,16.4-4.6,6.2-11.8-6.7-14.6-7.2l-12.3,6.8Z"/><path d="M75.5,71.4c4.1-.8,15.8.6,17.8,4.8,6.7,15-17.1,25.6-22.7,11.7s-1.3-15.3,5-16.6ZM76,77.5c-7.1,7.1,10.5,19.1,13.4,4.2-.2-4.9-10.4-7.2-13.4-4.2Z"/><path d="M166.8,73.3c.6,5.3-5.1,4.9-8.9,5.1-1.3,9.3-3.5,15.5-11.1,21.4s-7.7,3.7-5.5-.5c2.5-4.9,13.6-9.9,10-19-1.9-3.9-8.8-2.3-10.1-4s.3-4.5,2.6-4.6,22.3.6,23,1.5Z"/><path d="M85.8,29.3h2.9c1.3,3.1,1.3,5.3-.2,8.3s-6.6,7.2-8.3,8.7c-3.1,2.7-10.1-5.4-11.7-8.3s-2.4-12.6,2.1-9.7,1.3,8.2,4.6,9l2.5-12c7.3.9,1,8.5,4.5,12,2.5-1.9,3.4-5,3.5-8Z"/><path d="M55.7,26.3l2.1,8.9c3.1.9,4-5.9,5.5-6,5.2,6.3-3.9,12-7.1,16.9-7-3.2-15.3-8-14.4-16.9,6.2-1.8,4.7,7.8,11,7v-10s2.9,0,2.9,0Z"/><path d="M96.3,135.3c5.5-1.7,5.8,13.1,3,14-5.5,1.7-5.8-13.1-3-14Z"/><path d="M77.8,85.3v-5c3.5,0,6.9-.8,9,2.5.7,3.5-7.3,2.4-9,2.5Z"/><rect class="cls-1" x="4.3" y="4.3" width="200" height="200"/></svg>