<?xml version="1.0" encoding="UTF-8"?><svg id="Layer_1" xmlns="http://www.w3.org/2000/svg" viewBox="0 0 19.5 33.6"><path d="M3.6,1.2c.2-.9.9-1.2,1.6-.5.2.8,0,1.7.1,2.6s0,.8.6.7c.5-1.2.9-2.4.8-3.8,1.6-.9,1.6,2.3,1.5,3.3-.3,1.7-2.4,2.1-2,4.2s1.7,3,3.1,3c1.3,0,3.8-2.4,3.9-3.6s-3.5-3.1-2-5,2.1,2.7,3.1,2.5c.3-.7,0-3.6,1.1-3.6s.7.4.7.5v3.2c0,0,.2.3.2.5,1.7-.3,1.3-2.8,1.7-4.1,1.7-.7,1.5,1.8,1.4,2.9s-1,2.5-2.2,3-1.7.3-2,.4-.6,1.2-.8,1.5c-.9,1.3-2,2.4-3,3.6l6.2-.2c.4.1.4,2.1.3,2.5s-1.9,1.5-2.3,1.7c-1.9,1.3-5.3,2.4-5,5.1,2.3-.3,5.1-2.6,7.5-1.7,2.5.9,1.7,2.3-.8,1.9.2,1.3.4,3.2.2,4.5s-1.2,1-.2,2.9,2.6,3,0,2.5-.7-.8-1.4-.9l.4,2.9c-2.3.2-2.1-3.1-1.9-4.6s1.1-2.2,0-2.4c-1.8-.4-4.7,1.8-6.8.8.6.7,1.1,1.5,1,2.5l-1.9-.4-.8,3h-.6c-.8-2.8-.6-4.8,1-7.2.5-.7,2.2-2.4,2.4-2.8.5-1.3,0-3.9-1.7-3.8s-2.5.6-2.8.8c-.5.5,0,1.8-.6,2.2-1,.5-1.3-1.7-1.3-2.3s-.1-4.8.1-5.3c.7-1.7,3.9-.9,5.3-1.3-.5-.5-1.1-1.1-1.5-1.6s-1.1-1.8-1.4-2c-1.1-.8-1.7,0-2.9-2S-1.2,1.4,1,1.6c.8,0,.7,1.3.9,2s.8,2.4,1.7,2.3c.2-1.4-.2-3.3,0-4.7ZM6,13.9c-1.6.2-3.8,1.5-2.4,3.3,1.2.2,2.5.3,3.3-.7s.8-2.9-.9-2.6ZM9.8,13.9c-1.3.3-1.3,3.8.1,4.2.8-.6,1.5-1.3,1.5-2.4s-.7-2-1.6-1.8ZM15.4,13.9h-3.1c0,.4,0,1.6.4,1.8.6.4,3.1-.7,2.7-1.8ZM14.8,21.8c-2.1,1.2-5.2,1.1-6.5,3.3.2.8,3.7-.1,4.3-.3,1-.2,3.4,0,3.3-1.6s-.4-1.6-1.2-1.5Z"/></svg>